<?xml version="1.0" encoding="UTF-8" standalone="no"?>
<svg xmlns="http://www.w3.org/2000/svg" viewBox="0 0 512 512" width="512" height="512">
  <!-- Background circle -->
  <circle cx="256" cy="256" r="240" fill="#f8f4e3" />
  
  <!-- Outer ring representing the room -->
  <circle cx="256" cy="256" r="220" fill="none" stroke="#8c6d46" stroke-width="12" />
  
  <!-- Stylized people in a circle -->
  <g id="people">
    <!-- Person 1 -->
    <circle cx="256" cy="106" r="30" fill="#e57373" />
    <path d="M256 145 L256 165 Q256 175, 266 175 L286 175 Q296 175, 296 185 L296 205" fill="none" stroke="#e57373" stroke-width="12" stroke-linecap="round" />
    
    <!-- Person 2 -->
    <circle cx="363" cy="150" r="30" fill="#64b5f6" />
    <path d="M363 180 L363 200 Q363 210, 353 210 L333 210 Q323 210, 323 220 L323 240" fill="none" stroke="#64b5f6" stroke-width="12" stroke-linecap="round" />
    
    <!-- Person 3 -->
    <circle cx="405" cy="256" r="30" fill="#81c784" />
    <path d="M375 256 L355 256 Q345 256, 345 266 L345 286 Q345 296, 335 296 L315 296" fill="none" stroke="#81c784" stroke-width="12" stroke-linecap="round" />
    
    <!-- Person 4 -->
    <circle cx="363" cy="362" r="30" fill="#ffb74d" />
    <path d="M363 332 L363 312 Q363 302, 353 302 L333 302 Q323 302, 323 292 L323 272" fill="none" stroke="#ffb74d" stroke-width="12" stroke-linecap="round" />
    
    <!-- Person 5 -->
    <circle cx="256" cy="405" r="30" fill="#9575cd" />
    <path d="M256 375 L256 355 Q256 345, 266 345 L286 345 Q296 345, 296 335 L296 315" fill="none" stroke="#9575cd" stroke-width="12" stroke-linecap="round" />
    
    <!-- Person 6 -->
    <circle cx="150" cy="362" r="30" fill="#4db6ac" />
    <path d="M150 332 L150 312 Q150 302, 160 302 L180 302 Q190 302, 190 292 L190 272" fill="none" stroke="#4db6ac" stroke-width="12" stroke-linecap="round" />
    
    <!-- Person 7 -->
    <circle cx="106" cy="256" r="30" fill="#f06292" />
    <path d="M136 256 L156 256 Q166 256, 166 266 L166 286 Q166 296, 176 296 L196 296" fill="none" stroke="#f06292" stroke-width="12" stroke-linecap="round" />
    
    <!-- Person 8 -->
    <circle cx="150" cy="150" r="30" fill="#ffd54f" />
    <path d="M150 180 L150 200 Q150 210, 160 210 L180 210 Q190 210, 190 220 L190 240" fill="none" stroke="#ffd54f" stroke-width="12" stroke-linecap="round" />
  </g>
  
  <!-- Bible/Book in the center -->
  <rect x="226" y="226" width="60" height="60" rx="5" ry="5" fill="#8c6d46" />
  <rect x="226" y="226" width="60" height="10" rx="2" ry="2" fill="#5d4630" />
  <line x1="256" y1="236" x2="256" y2="286" stroke="#5d4630" stroke-width="2" />
</svg> 